<svg xmlns="http://www.w3.org/2000/svg" width="50" height="50" viewBox="0 0 154 154">
  <g id="Group_25" data-name="Group 25" transform="translate(-725 -2186)">
    <circle id="Ellipse_5" data-name="Ellipse 5" cx="77" cy="77" r="77" transform="translate(725 2186)" fill="#872ec4"/>
    <g id="Group_24" data-name="Group 24" transform="translate(754.263 2252.77)">
      <circle id="Ellipse_3" data-name="Ellipse 3" cx="9" cy="9" r="9" fill="#fff"/>
      <ellipse id="Ellipse_4" data-name="Ellipse 4" cx="3.5" cy="3" rx="3.5" ry="3" transform="translate(6 6)" fill="#872ec4"/>
    </g>
    <rect id="Rectangle_106" data-name="Rectangle 106" width="33" height="7" transform="translate(768.461 2258.734)" fill="#fff"/>
    <path id="Path_130" data-name="Path 130" d="M470.764,2059.624s8.4,3.043,8.576,17.314-8.576,18.335-8.576,18.335" transform="translate(322.604 184.588)" fill="none" stroke="#fff" stroke-width="10"/>
    <path id="Path_131" data-name="Path 131" d="M470.764,2059.624s16.06,5.038,16.463,34.32-16.463,38.826-16.463,38.826" transform="translate(330.108 166.636)" fill="none" stroke="#fff" stroke-width="10"/>
    <path id="Path_132" data-name="Path 132" d="M470.764,2059.624s25.229,8.327,25.886,48.806-25.886,56.016-25.886,56.016" transform="translate(337.337 151.128)" fill="none" stroke="#fff" stroke-width="10"/>
  </g>
</svg>
