<svg xmlns="http://www.w3.org/2000/svg" width="50" height="50" viewBox="0 0 154 154">
  <g id="Group_23" data-name="Group 23" transform="translate(-1069.5 -2271.5)">
    <rect id="Rectangle_104" data-name="Rectangle 104" width="154" height="154" rx="40" transform="translate(1223.5 2271.5) rotate(90)" fill="#b150e2"/>
    <g id="Ellipse_2" data-name="Ellipse 2" transform="translate(1134.933 2331.472)" fill="#fff" stroke="#fff" stroke-width="1">
      <ellipse cx="13" cy="13.5" rx="13" ry="13.5" stroke="none"/>
      <ellipse cx="13" cy="13.5" rx="12.5" ry="13" fill="none"/>
    </g>
    <g id="Path_127" data-name="Path 127" transform="translate(1134.647 2361.166)" fill="#fff">
      <path d="M 13.09238052368164 51.33425521850586 C 11.43617057800293 51.33425521850586 9.820670127868652 50.68798446655273 8.290770530700684 49.41340637207031 C 6.776450634002686 48.15181732177734 5.41161060333252 46.33618545532227 4.234160423278809 44.0169563293457 C 1.78389048576355 39.19065475463867 0.4344605207443237 32.76267623901367 0.4344605207443237 25.9171257019043 C 0.4344605207443237 23.79926490783691 0.3645305335521698 21.75452613830566 0.2969105243682861 19.7771053314209 C 0.1771605163812637 16.27561569213867 0.0640605241060257 12.96830558776855 0.3960505127906799 10.18620586395264 C 0.7558605074882507 7.171005725860596 1.600310564041138 5.066255569458008 3.053590536117554 3.56242561340332 C 5.045020580291748 1.501735687255859 8.328730583190918 0.5000057220458984 13.09238052368164 0.5000057220458984 C 17.85603141784668 0.5000057220458984 21.13973999023438 1.501735687255859 23.13117027282715 3.56242561340332 C 24.58444976806641 5.066255569458008 25.42889976501465 7.171005725860596 25.78870964050293 10.18620586395264 C 26.12070083618164 12.96830558776855 26.00760078430176 16.27561569213867 25.88784980773926 19.7771053314209 C 25.82023048400879 21.75452613830566 25.75030136108398 23.79926490783691 25.75030136108398 25.9171257019043 C 25.75030136108398 32.76267623901367 24.40087127685547 39.19065475463867 21.95059967041016 44.0169563293457 C 20.77315139770508 46.33618545532227 19.40830993652344 48.15181732177734 17.89399147033691 49.41340637207031 C 16.36408996582031 50.68798446655273 14.74859046936035 51.33425521850586 13.09238052368164 51.33425521850586 Z" stroke="none"/>
      <path d="M 13.09238052368164 0.9999961853027344 C 8.471481323242188 0.9999961853027344 5.305370330810547 1.951824188232422 3.413141250610352 3.909873962402344 C 2.039670944213867 5.33111572265625 1.238731384277344 7.344284057617188 0.8925304412841797 10.24544525146484 C 0.5650806427001953 12.98950576782227 0.6775398254394531 16.27821731567383 0.7966213226318359 19.76001739501953 C 0.8643798828125 21.74163627624512 0.9344596862792969 23.79071617126465 0.9344596862792969 25.9171257019043 C 0.9344596862792969 32.68551635742188 2.264650344848633 39.03310394287109 4.679990768432617 43.79060363769531 C 5.826499938964844 46.04887390136719 7.149021148681641 47.81140518188477 8.610811233520508 49.02924728393555 C 10.04844093322754 50.22695541381836 11.55626010894775 50.83424377441406 13.09238052368164 50.83424377441406 C 14.62850093841553 50.83424377441406 16.13632011413574 50.22695541381836 17.57395172119141 49.02924728393555 C 19.03573989868164 47.81140518188477 20.35826110839844 46.04887390136719 21.50477027893066 43.79060363769531 C 23.92011070251465 39.03310394287109 25.25030136108398 32.68551635742188 25.25030136108398 25.9171257019043 C 25.25030136108398 23.79071617126465 25.32038116455078 21.74163627624512 25.38813972473145 19.76001739501953 C 25.50722122192383 16.27821731567383 25.61968040466309 12.98950576782227 25.2922306060791 10.24544525146484 C 24.94602966308594 7.344284057617188 24.14509010314941 5.33111572265625 22.77161979675293 3.909873962402344 C 20.87939071655273 1.951824188232422 17.71327972412109 0.9999961853027344 13.09238052368164 0.9999961853027344 M 13.09238052368164 -3.814697265625e-06 C 29.47933959960938 -3.814697265625e-06 26.25030136108398 11.60349655151367 26.25030136108398 25.9171257019043 C 26.25030136108398 40.23075485229492 20.35930061340332 51.83424758911133 13.09238052368164 51.83424758911133 C 5.825460433959961 51.83424758911133 -0.06554031372070313 40.23075485229492 -0.06554031372070313 25.9171257019043 C -0.06554031372070313 11.60349655151367 -3.294578552246094 -3.814697265625e-06 13.09238052368164 -3.814697265625e-06 Z" stroke="none" fill="#fff"/>
    </g>
    <path id="Path_128" data-name="Path 128" d="M-127.943,2075.217s-16.177-7.131-15.718-30.666,18.862-33.508,36.333-33.508,35.6,8.789,35.259,33.508-17.82,30.666-17.82,30.666" transform="translate(1256.478 295.972)" fill="none" stroke="#fff" stroke-linecap="round" stroke-width="6"/>
    <path id="Path_129" data-name="Path 129" d="M-116.989,2106.517c-14.245-3.553-29.606-21.049-31.282-47.678s19.272-51.2,54.185-51.2,51.113,24.542,51.392,51.2-17.019,44.125-33.777,47.678" transform="translate(1243.509 281.638)" fill="none" stroke="#fff" stroke-linecap="round" stroke-width="6"/>
  </g>
</svg>
